# xmcd CD database file
#
# Track frame offsets:
#        150
#        3817
#        22270
#        42937
#        63869
#        88051
#        109291
#        124739
#        142806
#        159766
#        177064
#        193843
#        212708
#        231991
#
# Disc length: 3442 seconds
#
# Revision: 0
# Processed by: cddbd v1.5.2PL0 Copyright (c) Steve Scherf et al.
# Submitted via: CUERipper 2.1.1
#
DISCID=b60d700e
DTITLE=Dr. John - Anutha Zone
DYEAR=1900
DGENRE=Jazz
TTITLE0=Zonata
TTITLE1=Ki Ya Gris Gris
TTITLE2=Voices in My Head
TTITLE3=Hello God
TTITLE4=John Gris
TTITLE5=Party Hellfire
TTITLE6=I Don't Wanna Know
TTITLE7=Anutha Zone
TTITLE8=I Like Ki Yoka
TTITLE9=The Olive Tree
TTITLE10=Why Come
TTITLE11=Soulful Warrior
TTITLE12=The Stroke
TTITLE13=Sweet Home New Orleans
EXTD=
EXTT0=
EXTT1=
EXTT2=
EXTT3=
EXTT4=
EXTT5=
EXTT6=
EXTT7=
EXTT8=
EXTT9=
EXTT10=
EXTT11=
EXTT12=
EXTT13=
PLAYORDER=
